<?xml version="1.0" encoding="iso-8859-1"?>
<!-- Generator: Adobe Illustrator 19.0.0, SVG Export Plug-In . SVG Version: 6.00 Build 0)  -->
<svg version="1.1" id="Capa_1" xmlns="http://www.w3.org/2000/svg" xmlns:xlink="http://www.w3.org/1999/xlink" x="0px" y="0px"
	 viewBox="0 0 426.667 426.667" style="enable-background:new 0 0 426.667 426.667;" xml:space="preserve">
<rect x="18.799" y="198.103" style="fill:#DC8744;" width="389.205" height="165.675"/>
<rect y="363.778" style="fill:#3A556A;" width="426.667" height="16.836"/>
<polygon style="fill:#64798A;" points="340.844,79.493 69.66,79.493 18.798,198.106 408.002,198.106 "/>
<rect x="18.799" y="198.103" style="fill:#3A556A;" width="389.205" height="7.62"/>
<rect x="187.345" y="304.13" style="fill:#64798A;" width="50.79" height="59.652"/>
<rect x="211.328" y="304.13" style="fill:#3A556A;" width="2.846" height="59.652"/>
<rect x="365.568" y="218.455" style="fill:#2D93BA;" width="27.145" height="27.913"/>
<polygon style="fill:#27A2DB;" points="365.561,246.359 365.561,218.448 392.707,218.448 "/>
<g>
	<rect x="378.368" y="218.242" style="fill:#EBF0F3;" width="1.574" height="28.109"/>
	<rect x="365.568" y="231.213" style="fill:#EBF0F3;" width="27.145" height="2.364"/>
</g>
<rect x="328.064" y="218.455" style="fill:#2D93BA;" width="27.145" height="27.913"/>
<polygon style="fill:#27A2DB;" points="328.058,246.359 328.058,218.448 355.204,218.448 "/>
<g>
	<rect x="340.864" y="218.242" style="fill:#EBF0F3;" width="1.574" height="28.109"/>
	<rect x="328.064" y="231.213" style="fill:#EBF0F3;" width="27.145" height="2.364"/>
</g>
<rect x="290.56" y="218.455" style="fill:#2D93BA;" width="27.145" height="27.913"/>
<polygon style="fill:#27A2DB;" points="290.554,246.359 290.554,218.448 317.7,218.448 "/>
<g>
	<rect x="303.36" y="218.242" style="fill:#EBF0F3;" width="1.574" height="28.109"/>
	<rect x="290.56" y="231.213" style="fill:#EBF0F3;" width="27.145" height="2.364"/>
</g>
<rect x="236.672" y="218.455" style="fill:#2D93BA;" width="27.145" height="27.913"/>
<polygon style="fill:#27A2DB;" points="236.671,246.359 236.671,218.448 263.817,218.448 "/>
<g>
	<rect x="249.472" y="218.242" style="fill:#EBF0F3;" width="1.574" height="28.109"/>
	<rect x="236.672" y="231.213" style="fill:#EBF0F3;" width="27.145" height="2.364"/>
</g>
<rect x="199.168" y="218.455" style="fill:#2D93BA;" width="27.145" height="27.913"/>
<polygon style="fill:#27A2DB;" points="199.167,246.359 199.167,218.448 226.314,218.448 "/>
<g>
	<rect x="211.955" y="218.242" style="fill:#EBF0F3;" width="1.574" height="28.109"/>
	<rect x="199.168" y="231.213" style="fill:#EBF0F3;" width="27.145" height="2.364"/>
</g>
<rect x="161.664" y="218.455" style="fill:#2D93BA;" width="27.145" height="27.913"/>
<polygon style="fill:#27A2DB;" points="161.664,246.359 161.664,218.448 188.81,218.448 "/>
<g>
	<rect x="174.451" y="218.242" style="fill:#EBF0F3;" width="1.574" height="28.109"/>
	<rect x="161.664" y="231.213" style="fill:#EBF0F3;" width="27.145" height="2.364"/>
</g>
<rect x="365.568" y="262.658" style="fill:#2D93BA;" width="27.145" height="27.913"/>
<polygon style="fill:#27A2DB;" points="365.561,290.551 365.561,262.639 392.707,262.639 "/>
<g>
	<rect x="378.368" y="262.445" style="fill:#EBF0F3;" width="1.574" height="28.109"/>
	<rect x="365.568" y="275.415" style="fill:#EBF0F3;" width="27.145" height="2.364"/>
</g>
<rect x="328.064" y="262.658" style="fill:#2D93BA;" width="27.145" height="27.913"/>
<polygon style="fill:#27A2DB;" points="328.058,290.551 328.058,262.639 355.204,262.639 "/>
<g>
	<rect x="340.864" y="262.445" style="fill:#EBF0F3;" width="1.574" height="28.109"/>
	<rect x="328.064" y="275.415" style="fill:#EBF0F3;" width="27.145" height="2.364"/>
</g>
<rect x="290.56" y="262.658" style="fill:#2D93BA;" width="27.145" height="27.913"/>
<polygon style="fill:#27A2DB;" points="290.554,290.551 290.554,262.639 317.7,262.639 "/>
<g>
	<rect x="303.36" y="262.445" style="fill:#EBF0F3;" width="1.574" height="28.109"/>
	<rect x="290.56" y="275.415" style="fill:#EBF0F3;" width="27.145" height="2.364"/>
</g>
<rect x="236.672" y="262.743" style="fill:#2D93BA;" width="27.145" height="27.913"/>
<polygon style="fill:#27A2DB;" points="236.671,290.648 236.671,262.737 263.817,262.737 "/>
<g>
	<rect x="249.472" y="262.53" style="fill:#EBF0F3;" width="1.574" height="28.109"/>
	<rect x="236.672" y="275.501" style="fill:#EBF0F3;" width="27.145" height="2.364"/>
</g>
<rect x="199.168" y="262.743" style="fill:#2D93BA;" width="27.145" height="27.913"/>
<polygon style="fill:#27A2DB;" points="199.167,290.648 199.167,262.737 226.314,262.737 "/>
<g>
	<rect x="211.955" y="262.53" style="fill:#EBF0F3;" width="1.574" height="28.109"/>
	<rect x="199.168" y="275.501" style="fill:#EBF0F3;" width="27.145" height="2.364"/>
</g>
<rect x="161.664" y="262.743" style="fill:#2D93BA;" width="27.145" height="27.913"/>
<polygon style="fill:#27A2DB;" points="161.664,290.648 161.664,262.737 188.81,262.737 "/>
<g>
	<rect x="174.451" y="262.53" style="fill:#EBF0F3;" width="1.574" height="28.109"/>
	<rect x="161.664" y="275.501" style="fill:#EBF0F3;" width="27.145" height="2.364"/>
</g>
<rect x="365.568" y="306.831" style="fill:#2D93BA;" width="27.145" height="27.913"/>
<polygon style="fill:#27A2DB;" points="365.561,334.743 365.561,306.831 392.707,306.831 "/>
<g>
	<rect x="378.368" y="306.647" style="fill:#EBF0F3;" width="1.574" height="28.109"/>
	<rect x="365.568" y="319.618" style="fill:#EBF0F3;" width="27.145" height="2.364"/>
</g>
<rect x="328.064" y="306.831" style="fill:#2D93BA;" width="27.145" height="27.913"/>
<polygon style="fill:#27A2DB;" points="328.058,334.743 328.058,306.831 355.204,306.831 "/>
<g>
	<rect x="340.864" y="306.647" style="fill:#EBF0F3;" width="1.574" height="28.109"/>
	<rect x="328.064" y="319.618" style="fill:#EBF0F3;" width="27.145" height="2.364"/>
</g>
<rect x="290.56" y="306.831" style="fill:#2D93BA;" width="27.145" height="27.913"/>
<polygon style="fill:#27A2DB;" points="290.554,334.743 290.554,306.831 317.7,306.831 "/>
<g>
	<rect x="303.36" y="306.647" style="fill:#EBF0F3;" width="1.574" height="28.109"/>
	<rect x="290.56" y="319.618" style="fill:#EBF0F3;" width="27.145" height="2.364"/>
</g>
<rect x="110.387" y="218.455" style="fill:#2D93BA;" width="27.145" height="27.913"/>
<polygon style="fill:#27A2DB;" points="110.388,246.359 110.388,218.448 137.534,218.448 "/>
<g>
	<rect x="123.174" y="218.242" style="fill:#EBF0F3;" width="1.574" height="28.109"/>
	<rect x="110.387" y="231.213" style="fill:#EBF0F3;" width="27.145" height="2.364"/>
</g>
<rect x="72.875" y="218.455" style="fill:#2D93BA;" width="27.145" height="27.913"/>
<polygon style="fill:#27A2DB;" points="72.884,246.359 72.884,218.448 100.03,218.448 "/>
<g>
	<rect x="85.675" y="218.242" style="fill:#EBF0F3;" width="1.574" height="28.109"/>
	<rect x="72.875" y="231.213" style="fill:#EBF0F3;" width="27.145" height="2.364"/>
</g>
<rect x="35.379" y="218.455" style="fill:#2D93BA;" width="27.145" height="27.913"/>
<polygon style="fill:#27A2DB;" points="35.381,246.359 35.381,218.448 62.527,218.448 "/>
<g>
	<rect x="48.166" y="218.242" style="fill:#EBF0F3;" width="1.574" height="28.109"/>
	<rect x="35.383" y="231.213" style="fill:#EBF0F3;" width="27.145" height="2.364"/>
</g>
<rect x="110.387" y="262.658" style="fill:#2D93BA;" width="27.145" height="27.913"/>
<polygon style="fill:#27A2DB;" points="110.388,290.551 110.388,262.639 137.534,262.639 "/>
<g>
	<rect x="123.174" y="262.445" style="fill:#EBF0F3;" width="1.574" height="28.109"/>
	<rect x="110.387" y="275.415" style="fill:#EBF0F3;" width="27.145" height="2.364"/>
</g>
<rect x="72.875" y="262.658" style="fill:#2D93BA;" width="27.145" height="27.913"/>
<polygon style="fill:#27A2DB;" points="72.884,290.551 72.884,262.639 100.03,262.639 "/>
<g>
	<rect x="85.675" y="262.445" style="fill:#EBF0F3;" width="1.574" height="28.109"/>
	<rect x="72.875" y="275.415" style="fill:#EBF0F3;" width="27.145" height="2.364"/>
</g>
<rect x="35.379" y="262.658" style="fill:#2D93BA;" width="27.145" height="27.913"/>
<polygon style="fill:#27A2DB;" points="35.381,290.551 35.381,262.639 62.527,262.639 "/>
<g>
	<rect x="48.166" y="262.445" style="fill:#EBF0F3;" width="1.574" height="28.109"/>
	<rect x="35.383" y="275.415" style="fill:#EBF0F3;" width="27.145" height="2.364"/>
</g>
<rect x="110.387" y="306.831" style="fill:#2D93BA;" width="27.145" height="27.913"/>
<polygon style="fill:#27A2DB;" points="110.388,334.743 110.388,306.831 137.534,306.831 "/>
<g>
	<rect x="123.174" y="306.647" style="fill:#EBF0F3;" width="1.574" height="28.109"/>
	<rect x="110.387" y="319.618" style="fill:#EBF0F3;" width="27.145" height="2.364"/>
</g>
<rect x="72.875" y="306.831" style="fill:#2D93BA;" width="27.145" height="27.913"/>
<polygon style="fill:#27A2DB;" points="72.884,334.743 72.884,306.831 100.03,306.831 "/>
<g>
	<rect x="85.675" y="306.647" style="fill:#EBF0F3;" width="1.574" height="28.109"/>
	<rect x="72.875" y="319.618" style="fill:#EBF0F3;" width="27.145" height="2.364"/>
</g>
<rect x="35.379" y="306.831" style="fill:#2D93BA;" width="27.145" height="27.913"/>
<polygon style="fill:#27A2DB;" points="35.381,334.743 35.381,306.831 62.527,306.831 "/>
<g>
	<rect x="48.166" y="306.647" style="fill:#EBF0F3;" width="1.574" height="28.109"/>
	<rect x="35.383" y="319.618" style="fill:#EBF0F3;" width="27.145" height="2.364"/>
</g>
<rect x="299.947" y="135.132" style="fill:#2D93BA;" width="34.88" height="35.866"/>
<polygon style="fill:#27A2DB;" points="299.955,170.995 299.955,135.131 334.836,135.131 "/>
<g>
	<rect x="316.373" y="134.88" style="fill:#EBF0F3;" width="2.022" height="36.117"/>
	<rect x="299.947" y="151.546" style="fill:#EBF0F3;" width="34.88" height="3.038"/>
</g>
<rect x="251.776" y="135.132" style="fill:#2D93BA;" width="34.88" height="35.866"/>
<polygon style="fill:#27A2DB;" points="251.766,170.995 251.766,135.131 286.647,135.131 "/>
<g>
	<rect x="268.194" y="134.88" style="fill:#EBF0F3;" width="2.022" height="36.117"/>
	<rect x="251.776" y="151.546" style="fill:#EBF0F3;" width="34.88" height="3.038"/>
</g>
<rect x="122.402" y="135.132" style="fill:#2D93BA;" width="34.88" height="35.866"/>
<polygon style="fill:#27A2DB;" points="122.401,170.995 122.401,135.131 157.283,135.131 "/>
<g>
	<rect x="138.833" y="134.88" style="fill:#EBF0F3;" width="2.022" height="36.117"/>
	<rect x="122.402" y="151.546" style="fill:#EBF0F3;" width="34.88" height="3.038"/>
</g>
<rect x="74.21" y="135.132" style="fill:#2D93BA;" width="34.88" height="35.866"/>
<polygon style="fill:#27A2DB;" points="74.212,170.995 74.212,135.131 109.093,135.131 "/>
<g>
	<rect x="90.624" y="134.88" style="fill:#EBF0F3;" width="2.022" height="36.117"/>
	<rect x="74.214" y="151.546" style="fill:#EBF0F3;" width="34.88" height="3.038"/>
</g>
<rect x="299.947" y="91.083" style="fill:#2D93BA;" width="34.88" height="35.866"/>
<polygon style="fill:#27A2DB;" points="299.957,126.949 299.957,91.085 334.838,91.085 "/>
<g>
	<rect x="316.373" y="90.839" style="fill:#EBF0F3;" width="2.022" height="36.117"/>
	<rect x="299.947" y="107.479" style="fill:#EBF0F3;" width="34.88" height="3.038"/>
</g>
<rect x="251.776" y="91.083" style="fill:#2D93BA;" width="34.88" height="35.866"/>
<polygon style="fill:#27A2DB;" points="251.767,126.949 251.767,91.085 286.648,91.085 "/>
<g>
	<rect x="268.198" y="90.839" style="fill:#EBF0F3;" width="2.022" height="36.117"/>
	<rect x="251.776" y="107.479" style="fill:#EBF0F3;" width="34.88" height="3.038"/>
</g>
<rect x="122.402" y="91.083" style="fill:#2D93BA;" width="34.88" height="35.866"/>
<polygon style="fill:#27A2DB;" points="122.403,126.949 122.403,91.085 157.284,91.085 "/>
<g>
	<rect x="138.833" y="90.839" style="fill:#EBF0F3;" width="2.022" height="36.117"/>
	<rect x="122.402" y="107.479" style="fill:#EBF0F3;" width="34.88" height="3.038"/>
</g>
<rect x="74.214" y="91.083" style="fill:#2D93BA;" width="34.88" height="35.866"/>
<polygon style="fill:#27A2DB;" points="74.213,126.949 74.213,91.085 109.094,91.085 "/>
<g>
	<rect x="90.624" y="90.839" style="fill:#EBF0F3;" width="2.022" height="36.117"/>
	<rect x="74.214" y="107.479" style="fill:#EBF0F3;" width="34.88" height="3.038"/>
</g>
<g>
	<rect x="35.379" y="246.359" style="fill:#2D93BA;" width="357.333" height="7.151"/>
	<rect x="35.379" y="290.647" style="fill:#2D93BA;" width="357.333" height="7.151"/>
	<rect x="35.379" y="334.722" style="fill:#2D93BA;" width="102.153" height="7.356"/>
	<rect x="290.56" y="334.722" style="fill:#2D93BA;" width="102.153" height="7.356"/>
</g>
<g>
	<rect x="105.348" y="46.052" style="fill:#3A556A;" width="23.501" height="33.442"/>
	<rect x="281.412" y="46.052" style="fill:#3A556A;" width="23.501" height="33.442"/>
</g>
<g>
</g>
<g>
</g>
<g>
</g>
<g>
</g>
<g>
</g>
<g>
</g>
<g>
</g>
<g>
</g>
<g>
</g>
<g>
</g>
<g>
</g>
<g>
</g>
<g>
</g>
<g>
</g>
<g>
</g>
</svg>
