<?xml version="1.0" encoding="iso-8859-1"?>
<!-- Generator: Adobe Illustrator 19.0.0, SVG Export Plug-In . SVG Version: 6.00 Build 0)  -->
<svg version="1.1" id="Capa_1" xmlns="http://www.w3.org/2000/svg" xmlns:xlink="http://www.w3.org/1999/xlink" x="0px" y="0px"
	 viewBox="0 0 426.667 426.667" style="enable-background:new 0 0 426.667 426.667;" xml:space="preserve">
<rect y="369.015" style="fill:#3A556A;" width="426.667" height="16.832"/>
<rect x="18.79" y="125.133" style="fill:#F6C358;" width="389.077" height="243.883"/>
<polygon style="fill:#64798A;" points="348.883,40.819 77.783,40.819 18.792,125.131 407.875,125.131 "/>
<rect x="151.906" y="125.133" style="fill:#FCD462;" width="121.54" height="243.883"/>
<rect x="187.29" y="290.935" style="fill:#64798A;" width="50.773" height="78.067"/>
<polyline style="fill:#3A556A;" points="151.905,125.131 212.674,63.384 273.444,125.131 "/>
<polyline style="fill:#FCD462;" points="163.102,125.131 212.674,74.762 262.247,125.131 "/>
<g>
	<rect x="18.79" y="125.133" style="fill:#3A556A;" width="144.311" height="7.616"/>
	<rect x="262.229" y="125.133" style="fill:#3A556A;" width="145.621" height="7.616"/>
</g>
<rect x="188.16" y="151.287" style="fill:#2D93BA;" width="49.024" height="89.463"/>
<polygon style="fill:#27A2DB;" points="188.163,240.733 188.163,151.27 237.186,151.27 "/>
<g>
	<rect x="211.243" y="150.903" style="fill:#EBF0F3;" width="2.846" height="89.813"/>
	<rect x="188.16" y="172.621" style="fill:#EBF0F3;" width="49.024" height="4.267"/>
</g>
<rect x="53.764" y="151.287" style="fill:#2D93BA;" width="49.024" height="89.463"/>
<polygon style="fill:#27A2DB;" points="53.763,240.733 53.763,151.27 102.786,151.27 "/>
<g>
	<rect x="76.843" y="150.903" style="fill:#EBF0F3;" width="2.846" height="89.813"/>
	<rect x="53.764" y="172.621" style="fill:#EBF0F3;" width="49.024" height="4.267"/>
</g>
<rect x="53.764" y="261.239" style="fill:#2D93BA;" width="49.024" height="89.463"/>
<polygon style="fill:#27A2DB;" points="53.763,350.707 53.763,261.243 102.786,261.243 "/>
<g>
	<rect x="76.843" y="260.898" style="fill:#EBF0F3;" width="2.846" height="89.813"/>
	<rect x="53.764" y="282.573" style="fill:#EBF0F3;" width="49.024" height="4.267"/>
</g>
<rect x="317.568" y="151.287" style="fill:#2D93BA;" width="49.024" height="89.463"/>
<polygon style="fill:#27A2DB;" points="317.585,240.733 317.585,151.27 366.608,151.27 "/>
<g>
	<rect x="340.693" y="150.903" style="fill:#EBF0F3;" width="2.846" height="89.813"/>
	<rect x="317.568" y="172.621" style="fill:#EBF0F3;" width="49.024" height="4.267"/>
</g>
<rect x="317.568" y="261.239" style="fill:#2D93BA;" width="49.024" height="89.463"/>
<polygon style="fill:#27A2DB;" points="317.585,350.707 317.585,261.243 366.608,261.243 "/>
<g>
	<rect x="340.693" y="260.898" style="fill:#EBF0F3;" width="2.846" height="89.813"/>
	<rect x="317.568" y="282.573" style="fill:#EBF0F3;" width="49.024" height="4.267"/>
</g>
<g>
	<rect x="151.906" y="252.535" style="fill:#64798A;" width="121.54" height="13.274"/>
	<rect x="151.906" y="186.641" style="fill:#64798A;" width="7.181" height="69.214"/>
	<rect x="266.283" y="186.641" style="fill:#64798A;" width="7.181" height="69.214"/>
	<rect x="155.494" y="186.645" style="fill:#64798A;" width="116.732" height="7.181"/>
	<rect x="248.435" y="189.986" style="fill:#64798A;" width="7.181" height="73.301"/>
	<rect x="228.723" y="189.986" style="fill:#64798A;" width="7.181" height="73.301"/>
	<rect x="209.097" y="189.986" style="fill:#64798A;" width="7.181" height="73.301"/>
	<rect x="189.427" y="189.986" style="fill:#64798A;" width="7.181" height="73.301"/>
	<rect x="169.749" y="189.986" style="fill:#64798A;" width="7.181" height="73.301"/>
</g>
<rect x="211.243" y="290.935" style="fill:#3A556A;" width="2.846" height="78.067"/>
<g>
</g>
<g>
</g>
<g>
</g>
<g>
</g>
<g>
</g>
<g>
</g>
<g>
</g>
<g>
</g>
<g>
</g>
<g>
</g>
<g>
</g>
<g>
</g>
<g>
</g>
<g>
</g>
<g>
</g>
</svg>
